<svg width="330.63502197265626px" height="120.8px" xmlns="http://www.w3.org/2000/svg" viewBox="84.68248901367187 14.600000000000001 330.63502197265626 120.8" style="background: rgba(0, 0, 0, 0);" preserveAspectRatio="xMidYMid"><defs><filter id="editing-vr"><feFlood flood-color="#f00" flood-opacity="0.7" result="c1"></feFlood><feFlood flood-color="#00f" flood-opacity="0.7" result="c3"></feFlood><feComposite operator="in" in="c1" in2="SourceAlpha" result="text-c1"></feComposite><feComposite operator="in" in="c3" in2="SourceAlpha" result="text-c3"></feComposite><feOffset in="text-c1" dx="5" dy="-1" result="text1"></feOffset><feOffset in="text-c3" dx="-5" dy="1" result="text3"></feOffset><feBlend in="SourceGraphic" in2="text1" mode="multiply" result="text4"></feBlend><feBlend in="text4" in2="text3" mode="multiply"></feBlend></filter></defs><g filter="url(#editing-vr)"><g transform="translate(136.65502101182938, 102.55000114440918)"><path d="M7.68 0L0.64 0L8.32-42.24L22.08-42.24L32.06-13.18L37.38-42.24L44.48-42.18L36.67 0L22.02 0L12.80-27.97L7.68 0ZM48.86-1.92L48.86-1.92L48.86-1.92Q47.36-3.58 46.69-6.21L46.69-6.21L46.69-6.21Q46.02-8.83 46.02-13.12L46.02-13.12L46.02-13.12Q46.02-17.41 47.49-21.31L47.49-21.31L47.49-21.31Q48.96-25.22 51.65-28.03L51.65-28.03L51.65-28.03Q57.15-33.92 66.24-33.92L66.24-33.92L66.24-33.92Q69.50-33.92 71.87-32.83L71.87-32.83L82.82-33.92L78.08-8.96L78.08-8.96Q77.89-8.19 77.89-6.78L77.89-6.78L77.89-6.78Q77.89-5.38 78.75-4.48L78.75-4.48L78.75-4.48Q79.62-3.58 80.90-3.46L80.90-3.46L80.90-3.46Q80.26-1.28 77.92 0L77.92 0L77.92 0Q75.58 1.28 72.96 1.28L72.96 1.28L72.96 1.28Q70.34 1.28 68.58 0.29L68.58 0.29L68.58 0.29Q66.82-0.70 66.30-2.37L66.30-2.37L66.30-2.37Q65.28-0.77 63.10 0.26L63.10 0.26L63.10 0.26Q60.93 1.28 58.02 1.28L58.02 1.28L58.02 1.28Q55.10 1.28 52.74 0.51L52.74 0.51L52.74 0.51Q50.37-0.26 48.86-1.92ZM62.37-27.90L62.37-27.90L62.37-27.90Q61.63-26.75 60.99-24.80L60.99-24.80L60.99-24.80Q60.35-22.85 59.30-17.63L59.30-17.63L59.30-17.63Q58.24-12.42 58.24-8.70L58.24-8.70L58.24-8.70Q58.24-4.99 58.82-3.90L58.82-3.90L58.82-3.90Q59.39-2.82 60.42-2.82L60.42-2.82L60.42-2.82Q62.46-2.82 63.97-4.77L63.97-4.77L63.97-4.77Q65.47-6.72 66.05-10.18L66.05-10.18L69.44-28.93L69.44-28.93Q68.10-30.08 66.53-30.08L66.53-30.08L66.53-30.08Q64.96-30.08 64.03-29.57L64.03-29.57L64.03-29.57Q63.10-29.06 62.37-27.90ZM106.62-7.23L106.62-7.23L106.62-7.23Q103.30-3.78 97.22-3.78L97.22-3.78L97.22-3.78Q89.60-3.78 88-9.34L88-9.34L88-9.34Q87.49-11.01 87.49-12.86L87.49-12.86L87.49-12.86Q87.49-14.72 87.87-16.64L87.87-16.64L90.88-32.64L103.87-33.92L100.35-15.30L100.35-15.30Q100.22-14.46 100.03-13.57L100.03-13.57L100.03-13.57Q99.84-12.67 99.84-11.74L99.84-11.74L99.84-11.74Q99.84-10.82 100.16-10.21L100.16-10.21L100.16-10.21Q100.48-9.60 100.93-9.22L100.93-9.22L100.93-9.22Q101.70-8.70 103.07-8.70L103.07-8.70L103.07-8.70Q104.45-8.70 105.63-10.37L105.63-10.37L105.63-10.37Q106.82-12.03 107.39-14.91L107.39-14.91L110.91-32.64L123.52-33.92L118.72-8.77L118.72-8.77Q116.35 3.52 111.49 8.38L111.49 8.38L111.49 8.38Q108.99 10.88 105.76 11.87L105.76 11.87L105.76 11.87Q102.53 12.86 98.37 12.86L98.37 12.86L98.37 12.86Q91.65 12.86 87.81 10.75L87.81 10.75L87.81 10.75Q83.97 8.64 83.97 5.12L83.97 5.12L83.97 5.12Q83.97 2.50 85.95 0.99L85.95 0.99L85.95 0.99Q87.94-0.51 91.01-0.51L91.01-0.51L91.01-0.51Q93.70-0.51 95.74 0.64L95.74 0.64L95.74 0.64Q96.96 1.34 97.54 2.24L97.54 2.24L97.54 2.24Q96.06 3.52 96.06 5.63L96.06 5.63L96.06 5.63Q96.06 8.45 98.62 8.45L98.62 8.45L98.62 8.45Q102.85 8.45 105.28-1.28L105.28-1.28L105.28-1.28Q105.98-4.16 106.62-7.23ZM146.37-2.69L146.37-2.69L146.37-2.69Q143.30 1.28 135.68 1.28L135.68 1.28L135.68 1.28Q131.71 1.28 128.83-1.12L128.83-1.12L128.83-1.12Q125.95-3.52 125.95-6.98L125.95-6.98L125.95-6.98Q125.95-8.90 126.14-9.86L126.14-9.86L130.43-32.64L143.42-33.92L138.75-9.22L138.75-9.22Q138.50-7.81 138.50-6.98L138.50-6.98L138.50-6.98Q138.50-3.26 140.74-3.26L140.74-3.26L140.74-3.26Q143.23-3.26 145.02-6.66L145.02-6.66L145.02-6.66Q145.60-7.74 145.86-9.15L145.86-9.15L150.40-32.64L163.01-33.92L158.27-8.96L158.27-8.96Q158.08-8 158.08-6.98L158.08-6.98L158.08-6.98Q158.08-5.95 158.66-4.83L158.66-4.83L158.66-4.83Q159.23-3.71 161.09-3.46L161.09-3.46L161.09-3.46Q160.70-1.92 159.36-0.90L159.36-0.90L159.36-0.90Q156.54 1.28 153.50 1.28L153.50 1.28L153.50 1.28Q150.46 1.28 148.67 0.19L148.67 0.19L148.67 0.19Q146.88-0.90 146.37-2.69ZM167.49-6.40L167.49-6.40L167.49-6.40Q167.49-8.13 168.38-12.48L168.38-12.48L171.78-29.76L168.00-29.76L168.26-31.68L168.26-31.68Q175.94-33.98 183.36-39.62L183.36-39.62L186.43-39.62L184.90-32.64L189.89-32.64L189.31-29.76L184.38-29.76L181.12-12.48L181.12-12.48Q180.29-8.51 180.29-7.17L180.29-7.17L180.29-7.17Q180.29-4.10 182.98-3.46L182.98-3.46L182.98-3.46Q182.34-1.28 180.03 0L180.03 0L180.03 0Q177.73 1.28 174.46 1.28L174.46 1.28L174.46 1.28Q171.20 1.28 169.34-0.77L169.34-0.77L169.34-0.77Q167.49-2.82 167.49-6.40ZM192.10-1.92L192.10-1.92L192.10-1.92Q190.59-3.58 189.92-6.21L189.92-6.21L189.92-6.21Q189.25-8.83 189.25-13.12L189.25-13.12L189.25-13.12Q189.25-17.41 190.72-21.31L190.72-21.31L190.72-21.31Q192.19-25.22 194.88-28.03L194.88-28.03L194.88-28.03Q200.38-33.92 209.47-33.92L209.47-33.92L209.47-33.92Q212.74-33.92 215.10-32.83L215.10-32.83L226.05-33.92L221.31-8.96L221.31-8.96Q221.12-8.19 221.12-6.78L221.12-6.78L221.12-6.78Q221.12-5.38 221.98-4.48L221.98-4.48L221.98-4.48Q222.85-3.58 224.13-3.46L224.13-3.46L224.13-3.46Q223.49-1.28 221.15 0L221.15 0L221.15 0Q218.82 1.28 216.19 1.28L216.19 1.28L216.19 1.28Q213.57 1.28 211.81 0.29L211.81 0.29L211.81 0.29Q210.05-0.70 209.54-2.37L209.54-2.37L209.54-2.37Q208.51-0.77 206.34 0.26L206.34 0.26L206.34 0.26Q204.16 1.28 201.25 1.28L201.25 1.28L201.25 1.28Q198.34 1.28 195.97 0.51L195.97 0.51L195.97 0.51Q193.60-0.26 192.10-1.92ZM205.60-27.90L205.60-27.90L205.60-27.90Q204.86-26.75 204.22-24.80L204.22-24.80L204.22-24.80Q203.58-22.85 202.53-17.63L202.53-17.63L202.53-17.63Q201.47-12.42 201.47-8.70L201.47-8.70L201.47-8.70Q201.47-4.99 202.05-3.90L202.05-3.90L202.05-3.90Q202.62-2.82 203.65-2.82L203.65-2.82L203.65-2.82Q205.70-2.82 207.20-4.77L207.20-4.77L207.20-4.77Q208.70-6.72 209.28-10.18L209.28-10.18L212.67-28.93L212.67-28.93Q211.33-30.08 209.76-30.08L209.76-30.08L209.76-30.08Q208.19-30.08 207.26-29.57L207.26-29.57L207.26-29.57Q206.34-29.06 205.60-27.90Z" fill="#444"></path></g></g><style>text {
  font-size: 64px;
  font-family: Arial Black;
  dominant-baseline: central;
  text-anchor: middle;
}</style></svg>