<svg width="353.96002197265625px" height="120.8px" xmlns="http://www.w3.org/2000/svg" viewBox="73.01998901367188 14.600000000000001 353.96002197265625 120.8" style="background: rgba(0, 0, 0, 0);" preserveAspectRatio="xMidYMid"><defs><linearGradient id="editing-sticker-gradient" x1="0.5" y1="0.2" x2="0.5" y2="0.8"><stop offset="0" stop-color="#fd9"></stop><stop offset="1" stop-color="#9df"></stop></linearGradient><filter id="editing-sticker" x="-100%" y="-100%" width="300%" height="300%"><feMorphology operator="erode" radius="1" in="SourceAlpha" result="alpha-erode"></feMorphology><feConvolveMatrix order="3,3" divisor="1" kernelMatrix="0 1 0 1 1 1 0 1 0" in="alpha-erode" result="alpha-round"></feConvolveMatrix><feMorphology operator="dilate" radius="3.5" in="alpha-round" result="dilate-shadow"></feMorphology><feGaussianBlur in="dilate-shadow" stdDeviation="1.5" result="shadow"></feGaussianBlur><feFlood flood-color="#fff" result="flood-sticker"></feFlood><feComposite operator="in" in="flood-sticker" in2="alpha-round" result="comp-sticker"></feComposite><feMorphology operator="dilate" radius="3" in="comp-sticker" result="morph-sticker"></feMorphology><feConvolveMatrix order="3,3" divisor="1" kernelMatrix="0 1 0 1 1 1 0 1 0" in="morph-sticker" result="sticker"></feConvolveMatrix><feMerge><feMergeNode in="shadow"></feMergeNode><feMergeNode in="sticker"></feMergeNode><feMergeNode in="SourceGraphic"></feMergeNode></feMerge></filter></defs><g filter="url(#editing-sticker)"><g transform="translate(127.7900185585022, 99)"><path d="M2.69-39.68L2.69-39.68L2.69-39.68Q3.58-41.47 5.54-42.46L5.54-42.46L5.54-42.46Q7.49-43.46 10.18-43.46L10.18-43.46L10.18-43.46Q14.40-43.46 16.93-40.42L16.93-40.42L16.93-40.42Q19.46-37.38 19.46-30.72L19.46-30.72L19.46-7.87L34.11-42.18L41.66-42.18L43.39-9.79L43.20-7.94L58.43-42.18L67.20-42.18L46.72 0L33.09 0L31.81-19.46L23.36 0L7.94 0L6.02-30.72L6.02-30.72Q5.82-34.18 4.90-36.45L4.90-36.45L4.90-36.45Q3.97-38.72 2.69-39.68ZM79.81-3.52L79.81-3.52L79.81-3.52Q77.82 1.28 71.49 1.28L71.49 1.28L71.49 1.28Q68.22 1.28 66.18-0.96L66.18-0.96L66.18-0.96Q64.45-2.94 64.45-4.93L64.45-4.93L64.45-4.93Q64.45-10.11 66.82-20.22L66.82-20.22L69.18-32.64L82.18-33.92L78.27-13.70L78.27-13.70Q77.18-8.96 77.18-7.30L77.18-7.30L77.18-7.30Q77.18-3.65 79.81-3.52ZM70.34-41.54L70.34-41.54L70.34-41.54Q70.34-44.03 72.42-45.38L72.42-45.38L72.42-45.38Q74.50-46.72 77.50-46.72L77.50-46.72L77.50-46.72Q80.51-46.72 82.34-45.38L82.34-45.38L82.34-45.38Q84.16-44.03 84.16-41.54L84.16-41.54L84.16-41.54Q84.16-39.04 82.14-37.76L82.14-37.76L82.14-37.76Q80.13-36.48 77.12-36.48L77.12-36.48L77.12-36.48Q74.11-36.48 72.22-37.76L72.22-37.76L72.22-37.76Q70.34-39.04 70.34-41.54ZM100.54-3.52L100.54-3.52L100.54-3.52Q98.56 1.28 92.22 1.28L92.22 1.28L92.22 1.28Q89.02 1.28 86.98-0.96L86.98-0.96L86.98-0.96Q85.31-2.82 85.31-4.93L85.31-4.93L85.31-4.93Q85.31-9.73 87.55-20.22L87.55-20.22L92.22-44.80L105.22-46.08L99.01-13.70L99.01-13.70Q97.92-8.96 97.92-7.30L97.92-7.30L97.92-7.30Q97.92-3.65 100.54-3.52ZM121.28-3.52L121.28-3.52L121.28-3.52Q119.30 1.28 112.96 1.28L112.96 1.28L112.96 1.28Q109.76 1.28 107.71-0.96L107.71-0.96L107.71-0.96Q106.05-2.82 106.05-4.93L106.05-4.93L106.05-4.93Q106.05-9.73 108.29-20.22L108.29-20.22L112.96-44.80L125.95-46.08L119.74-13.70L119.74-13.70Q118.66-8.96 118.66-7.30L118.66-7.30L118.66-7.30Q118.66-3.65 121.28-3.52ZM142.08-3.52L142.08-3.52L142.08-3.52Q140.10 1.28 133.76 1.28L133.76 1.28L133.76 1.28Q130.50 1.28 128.45-0.96L128.45-0.96L128.45-0.96Q126.72-2.94 126.72-4.93L126.72-4.93L126.72-4.93Q126.72-10.11 129.09-20.22L129.09-20.22L131.46-32.64L144.45-33.92L140.54-13.70L140.54-13.70Q139.46-8.96 139.46-7.30L139.46-7.30L139.46-7.30Q139.46-3.65 142.08-3.52ZM132.61-41.54L132.61-41.54L132.61-41.54Q132.61-44.03 134.69-45.38L134.69-45.38L134.69-45.38Q136.77-46.72 139.78-46.72L139.78-46.72L139.78-46.72Q142.78-46.72 144.61-45.38L144.61-45.38L144.61-45.38Q146.43-44.03 146.43-41.54L146.43-41.54L146.43-41.54Q146.43-39.04 144.42-37.76L144.42-37.76L144.42-37.76Q142.40-36.48 139.39-36.48L139.39-36.48L139.39-36.48Q136.38-36.48 134.50-37.76L134.50-37.76L134.50-37.76Q132.61-39.04 132.61-41.54ZM150.30-1.92L150.30-1.92L150.30-1.92Q148.80-3.58 148.13-6.21L148.13-6.21L148.13-6.21Q147.46-8.83 147.46-13.12L147.46-13.12L147.46-13.12Q147.46-17.41 148.93-21.31L148.93-21.31L148.93-21.31Q150.40-25.22 153.09-28.03L153.09-28.03L153.09-28.03Q158.59-33.92 167.68-33.92L167.68-33.92L167.68-33.92Q170.94-33.92 173.31-32.83L173.31-32.83L184.26-33.92L179.52-8.96L179.52-8.96Q179.33-8.19 179.33-6.78L179.33-6.78L179.33-6.78Q179.33-5.38 180.19-4.48L180.19-4.48L180.19-4.48Q181.06-3.58 182.34-3.46L182.34-3.46L182.34-3.46Q181.70-1.28 179.36 0L179.36 0L179.36 0Q177.02 1.28 174.40 1.28L174.40 1.28L174.40 1.28Q171.78 1.28 170.02 0.29L170.02 0.29L170.02 0.29Q168.26-0.70 167.74-2.37L167.74-2.37L167.74-2.37Q166.72-0.77 164.54 0.26L164.54 0.26L164.54 0.26Q162.37 1.28 159.46 1.28L159.46 1.28L159.46 1.28Q156.54 1.28 154.18 0.51L154.18 0.51L154.18 0.51Q151.81-0.26 150.30-1.92ZM163.81-27.90L163.81-27.90L163.81-27.90Q163.07-26.75 162.43-24.80L162.43-24.80L162.43-24.80Q161.79-22.85 160.74-17.63L160.74-17.63L160.74-17.63Q159.68-12.42 159.68-8.70L159.68-8.70L159.68-8.70Q159.68-4.99 160.26-3.90L160.26-3.90L160.26-3.90Q160.83-2.82 161.86-2.82L161.86-2.82L161.86-2.82Q163.90-2.82 165.41-4.77L165.41-4.77L165.41-4.77Q166.91-6.72 167.49-10.18L167.49-10.18L170.88-28.93L170.88-28.93Q169.54-30.08 167.97-30.08L167.97-30.08L167.97-30.08Q166.40-30.08 165.47-29.57L165.47-29.57L165.47-29.57Q164.54-29.06 163.81-27.90ZM233.79 1.28L233.79 1.28L233.79 1.28Q226.05 1.28 226.05-4.74L226.05-4.74L226.05-4.74Q226.05-7.36 227.17-12.45L227.17-12.45L227.17-12.45Q228.29-17.54 228.67-19.58L228.67-19.58L228.67-19.58Q229.57-24.26 229.57-25.73L229.57-25.73L229.57-25.73Q229.57-28.99 227.14-28.99L227.14-28.99L227.14-28.99Q225.54-28.99 224.00-26.78L224.00-26.78L224.00-26.78Q222.46-24.58 221.76-20.16L221.76-20.16L217.79 0L205.31 1.28L208.77-16.13L208.77-16.13Q209.34-19.01 209.86-22.27L209.86-22.27L209.86-22.27Q210.37-25.54 210.37-26.05L210.37-26.05L210.37-26.05Q210.37-28.99 208.19-28.99L208.19-28.99L208.19-28.99Q206.72-28.99 205.12-26.82L205.12-26.82L205.12-26.82Q203.52-24.64 202.62-20.16L202.62-20.16L198.72 0L186.11 1.28L192.83-32.64L203.26-33.92L202.18-27.46L202.18-27.46Q203.84-30.91 206.91-32.42L206.91-32.42L206.91-32.42Q209.98-33.92 214.78-33.92L214.78-33.92L214.78-33.92Q217.54-33.92 219.33-32.58L219.33-32.58L219.33-32.58Q221.12-31.23 221.70-29.06L221.70-29.06L221.70-29.06Q222.78-31.30 225.57-32.61L225.57-32.61L225.57-32.61Q228.35-33.92 231.78-33.92L231.78-33.92L231.78-33.92Q235.20-33.92 236.90-33.18L236.90-33.18L236.90-33.18Q238.59-32.45 239.62-31.23L239.62-31.23L239.62-31.23Q241.34-28.99 241.34-24.90L241.34-24.90L241.34-24.90Q241.34-20.86 239.62-12.48L239.62-12.48L239.62-12.48Q238.72-8.38 238.72-6.88L238.72-6.88L238.72-6.88Q238.72-5.38 239.58-4.48L239.58-4.48L239.58-4.48Q240.45-3.58 241.73-3.46L241.73-3.46L241.73-3.46Q241.09-1.28 238.88 0L238.88 0L238.88 0Q236.67 1.28 233.79 1.28Z" fill="url(#editing-sticker-gradient)" stroke="#000" stroke-width="2.5"></path></g></g><style>text {
  font-size: 64px;
  font-family: Arial Black;
  dominant-baseline: central;
  text-anchor: middle;
}</style></svg>