<svg width="352.2950073242187px" height="120.8px" xmlns="http://www.w3.org/2000/svg" viewBox="73.85249633789064 14.600000000000001 352.2950073242187 120.8" style="background: rgba(0, 0, 0, 0);" preserveAspectRatio="xMidYMid"><defs><filter id="editing-offset"><feFlood flood-color="#f00" flood-opacity="0.5" result="c1"></feFlood><feFlood flood-color="#0f0" flood-opacity="0.5" result="c2"></feFlood><feFlood flood-color="#00f" flood-opacity="0.5" result="c3"></feFlood><feComposite operator="in" in="c1" in2="SourceAlpha" result="text-c1"></feComposite><feComposite operator="in" in="c2" in2="SourceAlpha" result="text-c2"></feComposite><feComposite operator="in" in="c3" in2="SourceAlpha" result="text-c3"></feComposite><feOffset in="text-c1" dx="-10" dy="0" result="text1"></feOffset><feOffset in="text-c2" dx="10" dy="0" result="text2"></feOffset><feOffset in="text-c3" dx="0" dy="0" result="text3"></feOffset><feMerge><feMergeNode in="text1"></feMergeNode><feMergeNode in="text2"></feMergeNode><feMergeNode in="text3"></feMergeNode></feMerge></filter></defs><g filter="url(#editing-offset)"><g transform="translate(127.3750228881836, 98.68000030517578)"><path d="M7.17 0L10.88-18.82L10.88-18.82Q9.02-36.16 2.50-39.87L2.50-39.87L2.50-39.87Q3.84-41.54 6.02-42.46L6.02-42.46L6.02-42.46Q8.19-43.39 10.82-43.39L10.82-43.39L10.82-43.39Q13.44-43.39 15.42-42.46L15.42-42.46L15.42-42.46Q17.41-41.54 18.69-39.55L18.69-39.55L18.69-39.55Q21.12-35.78 21.12-26.75L21.12-26.75L21.12-22.14L21.12-22.14Q24.96-33.41 28.80-38.27L28.80-38.27L28.80-38.27Q32.70-43.26 37.57-43.26L37.57-43.26L37.57-43.26Q39.49-43.26 40.77-42.27L40.77-42.27L40.77-42.27Q42.05-41.28 42.69-39.81L42.69-39.81L42.69-39.81Q37.76-37.63 33.02-31.36L33.02-31.36L33.02-31.36Q28.29-25.09 25.22-16.32L25.22-16.32L21.44 0L7.17 0ZM59.78-2.69L59.78-2.69L59.78-2.69Q56.70 1.28 49.09 1.28L49.09 1.28L49.09 1.28Q45.12 1.28 42.24-1.12L42.24-1.12L42.24-1.12Q39.36-3.52 39.36-6.98L39.36-6.98L39.36-6.98Q39.36-8.90 39.55-9.86L39.55-9.86L43.84-32.64L56.83-33.92L52.16-9.22L52.16-9.22Q51.90-7.81 51.90-6.98L51.90-6.98L51.90-6.98Q51.90-3.26 54.14-3.26L54.14-3.26L54.14-3.26Q56.64-3.26 58.43-6.66L58.43-6.66L58.43-6.66Q59.01-7.74 59.26-9.15L59.26-9.15L63.81-32.64L76.42-33.92L71.68-8.96L71.68-8.96Q71.49-8 71.49-6.98L71.49-6.98L71.49-6.98Q71.49-5.95 72.06-4.83L72.06-4.83L72.06-4.83Q72.64-3.71 74.50-3.46L74.50-3.46L74.50-3.46Q74.11-1.92 72.77-0.90L72.77-0.90L72.77-0.90Q69.95 1.28 66.91 1.28L66.91 1.28L66.91 1.28Q63.87 1.28 62.08 0.19L62.08 0.19L62.08 0.19Q60.29-0.90 59.78-2.69ZM126.46-13.25L126.46-13.25L126.46-13.25Q128.13-12.03 128.13-9.44L128.13-9.44L128.13-9.44Q128.13-6.85 127.01-5.02L127.01-5.02L127.01-5.02Q125.89-3.20 123.71-1.79L123.71-1.79L123.71-1.79Q119.04 1.22 110.88 1.22L110.88 1.22L110.88 1.22Q102.72 1.22 98.27-3.04L98.27-3.04L98.27-3.04Q93.82-7.30 93.82-14.85L93.82-14.85L93.82-14.85Q93.82-25.54 99.39-33.66L99.39-33.66L99.39-33.66Q103.62-39.68 111.17-42.24L111.17-42.24L111.17-42.24Q115.07-43.52 118.91-43.52L118.91-43.52L118.91-43.52Q122.75-43.52 125.12-43.01L125.12-43.01L125.12-43.01Q127.49-42.50 129.28-41.47L129.28-41.47L129.28-41.47Q133.18-39.23 133.18-35.65L133.18-35.65L133.18-35.65Q133.18-32.38 130.11-29.95L130.11-29.95L130.11-29.95Q127.30-27.78 124.99-27.78L124.99-27.78L124.99-27.78Q122.69-27.78 121.73-28.10L121.73-28.10L121.73-28.10Q121.98-30.40 121.98-31.90L121.98-31.90L121.98-31.90Q121.98-33.41 121.92-34.50L121.92-34.50L121.92-34.50Q121.86-35.58 121.54-36.61L121.54-36.61L121.54-36.61Q120.90-38.98 118.94-38.98L118.94-38.98L118.94-38.98Q116.99-38.98 115.04-37.15L115.04-37.15L115.04-37.15Q113.09-35.33 111.42-32.26L111.42-32.26L111.42-32.26Q107.65-25.28 107.65-17.02L107.65-17.02L107.65-17.02Q107.65-13.06 109.89-10.78L109.89-10.78L109.89-10.78Q112.13-8.51 116.93-8.51L116.93-8.51L116.93-8.51Q120.51-8.51 123.90-10.88L123.90-10.88L123.90-10.88Q125.38-11.90 126.46-13.25ZM165.63-7.10L165.63-7.10L165.63-7.10Q165.63-4.29 168.51-3.46L168.51-3.46L168.51-3.46Q167.81-1.09 165.06 0.19L165.06 0.19L165.06 0.19Q162.75 1.28 160.22 1.28L160.22 1.28L160.22 1.28Q157.70 1.28 156.38 0.61L156.38 0.61L156.38 0.61Q155.07-0.06 154.37-1.15L154.37-1.15L154.37-1.15Q153.22-2.82 153.22-5.95L153.22-5.95L153.22-5.95Q153.22-7.81 154.24-12.93L154.24-12.93L155.14-17.79L155.14-17.79Q156.22-23.36 156.22-25.41L156.22-25.41L156.22-25.41Q156.22-28.99 154.24-28.99L154.24-28.99L154.24-28.99Q151.74-28.99 150.14-25.34L150.14-25.34L150.14-25.34Q149.50-23.94 149.06-21.82L149.06-21.82L144.70 0L131.84 1.28L140.86-44.80L153.73-46.08L153.22-43.52L153.22-43.52Q151.42-33.66 149.89-30.34L149.89-30.34L149.89-30.34Q153.47-33.92 160.06-33.92L160.06-33.92L160.06-33.92Q167.04-33.92 168.32-29.31L168.32-29.31L168.32-29.31Q168.77-27.84 168.77-26.56L168.77-26.56L168.77-26.56Q168.77-25.28 168.67-24.29L168.67-24.29L168.67-24.29Q168.58-23.30 168.26-21.50L168.26-21.50L167.42-16.90L165.95-9.66L165.95-9.66Q165.63-8.19 165.63-7.10ZM199.62-10.82L199.62-10.82L199.62-10.82Q201.22-9.73 201.22-7.33L201.22-7.33L201.22-7.33Q201.22-4.93 200.00-3.39L200.00-3.39L200.00-3.39Q198.78-1.86 196.80-0.83L196.80-0.83L196.80-0.83Q192.70 1.28 188.29 1.28L188.29 1.28L188.29 1.28Q183.87 1.28 181.28 0.32L181.28 0.32L181.28 0.32Q178.69-0.64 176.96-2.43L176.96-2.43L176.96-2.43Q173.57-5.82 173.57-12.03L173.57-12.03L173.57-12.03Q173.57-21.70 178.82-27.58L178.82-27.58L178.82-27.58Q184.45-33.92 194.24-33.92L194.24-33.92L194.24-33.92Q200.32-33.92 203.33-31.36L203.33-31.36L203.33-31.36Q205.57-29.44 205.57-26.30L205.57-26.30L205.57-26.30Q205.57-15.04 186.11-15.04L186.11-15.04L186.11-15.04Q185.86-13.38 185.86-11.97L185.86-11.97L185.86-11.97Q185.86-9.02 187.17-7.90L187.17-7.90L187.17-7.90Q188.48-6.78 190.91-6.78L190.91-6.78L190.91-6.78Q193.34-6.78 195.94-7.90L195.94-7.90L195.94-7.90Q198.53-9.02 199.62-10.82ZM186.56-17.79L186.56-17.79L186.56-17.79Q191.10-17.79 193.73-20.61L193.73-20.61L193.73-20.61Q196.35-23.30 196.35-27.58L196.35-27.58L196.35-27.58Q196.35-29.06 195.81-29.86L195.81-29.86L195.81-29.86Q195.26-30.66 194.18-30.66L194.18-30.66L194.18-30.66Q193.09-30.66 192.16-30.24L192.16-30.24L192.16-30.24Q191.23-29.82 190.27-28.42L190.27-28.42L190.27-28.42Q187.90-25.22 186.56-17.79ZM234.82 1.28L234.82 1.28L234.82 1.28Q227.07 1.28 227.07-4.74L227.07-4.74L227.07-4.74Q227.14-6.40 227.65-9.22L227.65-9.22L228.80-15.10L228.80-15.10Q230.53-23.42 230.53-25.28L230.53-25.28L230.53-25.28Q230.53-28.99 228.35-28.99L228.35-28.99L228.35-28.99Q224.70-28.99 222.78-19.46L222.78-19.46L219.01 0L206.14 1.28L212.80-32.70L223.30-33.92L222.27-27.65L222.27-27.65Q225.28-33.92 234.50-33.92L234.50-33.92L234.50-33.92Q238.98-33.92 240.86-32.03L240.86-32.03L240.86-32.03Q242.75-30.14 242.75-25.92L242.75-25.92L242.75-25.92Q242.75-21.95 240.70-12.67L240.70-12.67L240.70-12.67Q239.74-8.51 239.74-6.94L239.74-6.94L239.74-6.94Q239.74-5.38 240.61-4.48L240.61-4.48L240.61-4.48Q241.47-3.58 242.75-3.46L242.75-3.46L242.75-3.46Q242.11-1.28 239.90 0L239.90 0L239.90 0Q237.70 1.28 234.82 1.28Z"></path></g></g><style>text {
  font-size: 64px;
  font-family: Arial Black;
  dominant-baseline: central;
  text-anchor: middle;
}</style></svg>