<svg xmlns="http://www.w3.org/2000/svg" width="500" height="500" viewBox="0 0 500 500" version="1.1"><path d="M 227 58.054 C 212.859 59.808, 202.485 62.154, 189 66.648 C 131.404 85.843, 87.077 130.243, 68.012 187.837 C 53.451 231.824, 55.620 280.269, 74.063 323 C 95.409 372.454, 137.398 411.158, 188.104 428.117 C 251.200 449.220, 320.871 435.650, 371.678 392.361 C 394.668 372.773, 413.939 345.955, 424.905 318.291 C 438.660 283.588, 441.834 245.076, 434.036 207.488 C 429.368 184.992, 416.570 155.555, 403.759 137.849 C 373.421 95.917, 330.604 68.496, 282 59.872 C 268.804 57.530, 239.133 56.549, 227 58.054 M 232 61.613 C 149.990 69.094, 81.880 129.630, 65.047 210 C 61.657 226.183, 60.643 241.740, 61.876 258.635 C 63.882 286.126, 69.720 307.539, 81.565 330.855 C 93.228 353.812, 108.008 372.863, 126.500 388.775 C 192.757 445.785, 288.609 449.246, 360 397.205 C 370.614 389.469, 393.287 366.258, 401.229 355 C 425.739 320.257, 437.807 277.467, 434.895 235.637 C 430.557 173.329, 396.490 118.469, 342.018 86.070 C 325.602 76.306, 301.994 67.665, 281.549 63.938 C 270.768 61.972, 242.570 60.649, 232 61.613 M 227 67.023 C 182.811 73.159, 145.145 92.484, 115.591 124.184 C 103.679 136.960, 95.262 149.040, 87.124 165.036 C 64.608 209.298, 61.104 258.963, 77.145 306.500 C 94.862 359.004, 136.668 400.851, 190 419.468 C 195.775 421.484, 205.900 424.298, 212.500 425.722 C 223.350 428.064, 226.704 428.320, 247.500 428.397 C 267.798 428.473, 271.851 428.210, 282 426.164 C 339.014 414.666, 385.801 378.900, 411.066 327.500 C 432.165 284.574, 435.299 235.813, 419.929 189.607 C 399.355 127.754, 348.734 83.108, 283.659 69.421 C 273.716 67.329, 268.037 66.796, 252.500 66.492 C 242.050 66.288, 230.575 66.527, 227 67.023 M 236 76.156 C 159.740 80.798, 94.797 137.900, 78.917 214.275 C 76.245 227.125, 75.279 251.767, 76.906 265.562 C 81.905 307.955, 99.853 343.791, 130.711 372.995 C 171.796 411.878, 230.035 427.774, 285.921 415.360 C 347.398 401.703, 397.351 354.714, 414.401 294.500 C 434.565 223.290, 406.266 146.461, 344.547 104.852 C 312.606 83.318, 276.248 73.706, 236 76.156 M 218.500 83.473 C 165.735 93.628, 122.822 126.241, 98.725 174.500 C 76.250 219.511, 76.753 275.997, 100.043 322.500 C 124.290 370.914, 170.316 404.219, 224.500 412.558 C 239.207 414.821, 267.109 414.100, 281 411.098 C 314.169 403.928, 342.340 388.736, 365.501 365.526 C 379.757 351.241, 388.815 338.830, 396.905 322.500 C 406.652 302.824, 411.535 285.864, 414.034 263 C 416.224 242.966, 413.027 215.775, 406.015 194.803 C 386.262 135.723, 337.738 93.983, 276.075 83.029 C 259.643 80.111, 234.984 80.300, 218.500 83.473 M 226 86.145 C 199.118 90.582, 178.533 98.499, 157.500 112.490 C 121.648 136.340, 96.446 174.225, 87.796 217.272 C 85.940 226.509, 85.546 231.692, 85.579 246.500 C 85.641 275.106, 90.016 294.249, 102.034 318.500 C 110.601 335.787, 119.489 348.346, 132.500 361.550 C 158.872 388.312, 191.583 404.346, 229.411 409.054 C 249.763 411.587, 276.089 409.105, 297.500 402.635 C 339.316 389.999, 377.066 357.100, 395.849 316.923 C 410.509 285.565, 414.679 256.350, 409.400 222 C 398.750 152.710, 343.342 97.784, 272.761 86.550 C 262.061 84.847, 235.271 84.615, 226 86.145 M 175 194.096 L 175 209.193 157.474 231.846 C 147.835 244.306, 137.226 258.029, 133.899 262.342 C 130.573 266.655, 128.094 270.428, 128.392 270.725 C 128.689 271.023, 139.298 271.496, 151.966 271.776 L 175 272.286 175 293.143 L 175 314 189 314 L 203 314 203 300.500 L 203 287 211.500 287 L 220 287 220 284 L 220 281 211.500 281 L 203 281 203 276.500 L 203 272 211.500 272 L 220 272 220 268.500 L 220 265 211.500 265 L 203 265 203 222 L 203 179 189 179 L 175 179 175 194.096 M 243.242 223.250 C 243.610 262.041, 243.880 268.179, 245.427 273 C 252.047 293.623, 267.698 308.313, 287.500 312.489 C 296.243 314.333, 301.682 314.351, 310.115 312.563 C 335.233 307.239, 354 284.243, 354 258.790 L 354 252 362 252 L 370 252 370 249 L 370 246 362 246 C 354.194 246, 354 245.941, 354 243.569 C 354 241.254, 354.385 241.104, 362 240.440 C 369.554 239.781, 370 239.610, 370 237.371 C 370 235.074, 369.750 235, 362 235 L 354 235 354 208 L 354 181 351 181 L 348 181 348 208 L 348 235 341 235 L 334 235 334 238 L 334 241 341 241 C 347.800 241, 348 241.071, 348 243.500 C 348 245.929, 347.800 246, 341 246 L 334 246 334 249 L 334 252 341 252 L 348 252 348 258.818 C 348 276.255, 337.673 293.195, 322.032 301.414 C 311.970 306.701, 306.895 307.075, 298.502 303.148 C 290.232 299.278, 280.477 289.790, 276.622 281.869 C 271.179 270.684, 271.025 269.046, 271.012 222.250 L 271 179 256.912 179 L 242.823 179 243.242 223.250 M 277 217.563 L 277 254.127 280.250 253.813 L 283.500 253.500 283.762 217.250 L 284.025 181 280.512 181 L 277 181 277 217.563 M 181 193.132 L 181 201.264 187 193.500 C 190.300 189.230, 193 185.570, 193 185.368 C 193 185.166, 190.300 185, 187 185 L 181 185 181 193.132 M 250.008 222.250 C 250.012 242.738, 250.471 262.425, 251.029 266 C 252.489 275.365, 258.140 286.329, 264.944 293 C 270.760 298.702, 280.067 304.270, 285.813 305.486 C 288.961 306.152, 288.733 305.798, 281.217 298.343 C 275.706 292.878, 272.350 288.529, 270.148 284 C 264.518 272.422, 264.037 267.729, 264.017 224.250 L 264 185 257 185 L 250 185 250.008 222.250 M 188.656 201.750 L 181.038 211.500 181.019 238.250 L 181 265 189 265 L 197 265 197 228.500 C 197 208.425, 196.837 192, 196.637 192 C 196.437 192, 192.846 196.387, 188.656 201.750 M 156.751 242.640 L 139.002 265.500 156.176 265.774 C 165.623 265.925, 173.731 265.669, 174.195 265.205 C 174.659 264.741, 174.918 254.330, 174.770 242.070 L 174.500 219.779 156.751 242.640 M 181 290 L 181 308 189.035 308 L 197.070 308 196.785 297.750 L 196.500 287.500 190.750 287.200 C 185.117 286.906, 185 286.840, 185 283.950 C 185 281.011, 185.023 281, 191 281 L 197 281 197 276.500 L 197 272 189 272 L 181 272 181 290" stroke="none" fill="#b99b59" fill-rule="evenodd"/><path d="M 232 61.613 C 149.990 69.094, 81.880 129.630, 65.047 210 C 61.657 226.183, 60.643 241.740, 61.876 258.635 C 63.882 286.126, 69.720 307.539, 81.565 330.855 C 93.228 353.812, 108.008 372.863, 126.500 388.775 C 192.757 445.785, 288.609 449.246, 360 397.205 C 370.614 389.469, 393.287 366.258, 401.229 355 C 425.739 320.257, 437.807 277.467, 434.895 235.637 C 430.557 173.329, 396.490 118.469, 342.018 86.070 C 325.602 76.306, 301.994 67.665, 281.549 63.938 C 270.768 61.972, 242.570 60.649, 232 61.613 M 227 67.023 C 182.811 73.159, 145.145 92.484, 115.591 124.184 C 103.679 136.960, 95.262 149.040, 87.124 165.036 C 64.608 209.298, 61.104 258.963, 77.145 306.500 C 94.862 359.004, 136.668 400.851, 190 419.468 C 195.775 421.484, 205.900 424.298, 212.500 425.722 C 223.350 428.064, 226.704 428.320, 247.500 428.397 C 267.798 428.473, 271.851 428.210, 282 426.164 C 339.014 414.666, 385.801 378.900, 411.066 327.500 C 432.165 284.574, 435.299 235.813, 419.929 189.607 C 399.355 127.754, 348.734 83.108, 283.659 69.421 C 273.716 67.329, 268.037 66.796, 252.500 66.492 C 242.050 66.288, 230.575 66.527, 227 67.023 M 236 76.156 C 159.740 80.798, 94.797 137.900, 78.917 214.275 C 76.245 227.125, 75.279 251.767, 76.906 265.562 C 81.905 307.955, 99.853 343.791, 130.711 372.995 C 171.796 411.878, 230.035 427.774, 285.921 415.360 C 347.398 401.703, 397.351 354.714, 414.401 294.500 C 434.565 223.290, 406.266 146.461, 344.547 104.852 C 312.606 83.318, 276.248 73.706, 236 76.156 M 218.500 83.473 C 165.735 93.628, 122.822 126.241, 98.725 174.500 C 76.250 219.511, 76.753 275.997, 100.043 322.500 C 124.290 370.914, 170.316 404.219, 224.500 412.558 C 239.207 414.821, 267.109 414.100, 281 411.098 C 314.169 403.928, 342.340 388.736, 365.501 365.526 C 379.757 351.241, 388.815 338.830, 396.905 322.500 C 406.652 302.824, 411.535 285.864, 414.034 263 C 416.224 242.966, 413.027 215.775, 406.015 194.803 C 386.262 135.723, 337.738 93.983, 276.075 83.029 C 259.643 80.111, 234.984 80.300, 218.500 83.473 M 226 86.145 C 199.118 90.582, 178.533 98.499, 157.500 112.490 C 121.648 136.340, 96.446 174.225, 87.796 217.272 C 85.940 226.509, 85.546 231.692, 85.579 246.500 C 85.641 275.106, 90.016 294.249, 102.034 318.500 C 110.601 335.787, 119.489 348.346, 132.500 361.550 C 158.872 388.312, 191.583 404.346, 229.411 409.054 C 249.763 411.587, 276.089 409.105, 297.500 402.635 C 339.316 389.999, 377.066 357.100, 395.849 316.923 C 410.509 285.565, 414.679 256.350, 409.400 222 C 398.750 152.710, 343.342 97.784, 272.761 86.550 C 262.061 84.847, 235.271 84.615, 226 86.145 M 175 194.096 L 175 209.193 157.474 231.846 C 147.835 244.306, 137.226 258.029, 133.899 262.342 C 130.573 266.655, 128.094 270.428, 128.392 270.725 C 128.689 271.023, 139.298 271.496, 151.966 271.776 L 175 272.286 175 293.143 L 175 314 189 314 L 203 314 203 300.500 L 203 287 211.500 287 L 220 287 220 284 L 220 281 211.500 281 L 203 281 203 276.500 L 203 272 211.500 272 L 220 272 220 268.500 L 220 265 211.500 265 L 203 265 203 222 L 203 179 189 179 L 175 179 175 194.096 M 243.242 223.250 C 243.610 262.041, 243.880 268.179, 245.427 273 C 252.047 293.623, 267.698 308.313, 287.500 312.489 C 296.243 314.333, 301.682 314.351, 310.115 312.563 C 335.233 307.239, 354 284.243, 354 258.790 L 354 252 362 252 L 370 252 370 249 L 370 246 362 246 C 354.194 246, 354 245.941, 354 243.569 C 354 241.254, 354.385 241.104, 362 240.440 C 369.554 239.781, 370 239.610, 370 237.371 C 370 235.074, 369.750 235, 362 235 L 354 235 354 208 L 354 181 351 181 L 348 181 348 208 L 348 235 341 235 L 334 235 334 238 L 334 241 341 241 C 347.800 241, 348 241.071, 348 243.500 C 348 245.929, 347.800 246, 341 246 L 334 246 334 249 L 334 252 341 252 L 348 252 348 258.818 C 348 276.255, 337.673 293.195, 322.032 301.414 C 311.970 306.701, 306.895 307.075, 298.502 303.148 C 290.232 299.278, 280.477 289.790, 276.622 281.869 C 271.179 270.684, 271.025 269.046, 271.012 222.250 L 271 179 256.912 179 L 242.823 179 243.242 223.250 M 277 217.563 L 277 254.127 280.250 253.813 L 283.500 253.500 283.762 217.250 L 284.025 181 280.512 181 L 277 181 277 217.563 M 181 193.132 L 181 201.264 187 193.500 C 190.300 189.230, 193 185.570, 193 185.368 C 193 185.166, 190.300 185, 187 185 L 181 185 181 193.132 M 250.008 222.250 C 250.012 242.738, 250.471 262.425, 251.029 266 C 252.489 275.365, 258.140 286.329, 264.944 293 C 270.760 298.702, 280.067 304.270, 285.813 305.486 C 288.961 306.152, 288.733 305.798, 281.217 298.343 C 275.706 292.878, 272.350 288.529, 270.148 284 C 264.518 272.422, 264.037 267.729, 264.017 224.250 L 264 185 257 185 L 250 185 250.008 222.250 M 188.656 201.750 L 181.038 211.500 181.019 238.250 L 181 265 189 265 L 197 265 197 228.500 C 197 208.425, 196.837 192, 196.637 192 C 196.437 192, 192.846 196.387, 188.656 201.750 M 156.751 242.640 L 139.002 265.500 156.176 265.774 C 165.623 265.925, 173.731 265.669, 174.195 265.205 C 174.659 264.741, 174.918 254.330, 174.770 242.070 L 174.500 219.779 156.751 242.640 M 181 290 L 181 308 189.035 308 L 197.070 308 196.785 297.750 L 196.500 287.500 190.750 287.200 C 185.117 286.906, 185 286.840, 185 283.950 C 185 281.011, 185.023 281, 191 281 L 197 281 197 276.500 L 197 272 189 272 L 181 272 181 290" stroke="none" fill="#272625" fill-rule="evenodd"/></svg>